# xmcd
#
# Track frame offsets: 
#        150
#        26157
#        54129
#        77695
#        102045
#        126006
#        151261
#        173658
#        198218
#        221551
#        244053
#        266119
#        285058
#
# Disc length: 4149 seconds
#
# Revision: 2
# Processed by: cddbd v1.5.2PL0 Copyright (c) Steve Scherf et al.
# Submitted via: ExactAudioCopyFreeDBPlugin 1.0
#
DISCID=a010330d
DTITLE=齐旦布 - DTSES天上西藏2
DYEAR=2008
DGENRE=DTS ES
TTITLE0=佛
TTITLE1=玛尼墙
TTITLE2=爱琴海
TTITLE3=梦见你的那一夜
TTITLE4=姑娘我爱你
TTITLE5=高原蓝
TTITLE6=吉祥如意
TTITLE7=手心里的温柔
TTITLE8=爱人天堂
TTITLE9=回来吧，我的心上人
TTITLE10=美丽的高原红
TTITLE11=万山之巅
TTITLE12=慈祥的母亲
EXTD=
EXTT0=
EXTT1=
EXTT2=
EXTT3=
EXTT4=
EXTT5=
EXTT6=
EXTT7=
EXTT8=
EXTT9=
EXTT10=
EXTT11=
EXTT12=
PLAYORDER=
